<svg xmlns="http://www.w3.org/2000/svg" width="161" height="19" viewBox="0 0 161 19">
  <defs>
    <style>
      .cls-1 {
        fill: #fff;
        fill-rule: evenodd;
      }
    </style>
  </defs>
  <path id="Logotype_copie" data-name="Logotype copie" class="cls-1" d="M272.815,3309.62h5.88l3.153-18.21h-5.88l-1.163,6.52h-5.1l1.163-6.52h-5.88l-3.152,18.21h5.88l1.185-6.82H274Zm12.364-18.24-1.788,10.14a11.63,11.63,0,0,0-.224,2.27c0,5.38,4.651,6.19,7.445,6.19,5.858,0,8.385-1.97,9.3-7.27l1.968-11.35H296l-1.677,9.52c-0.537,2.98-.917,4.54-3.108,4.54-1.431,0-2.124-.77-2.124-2.35a12.384,12.384,0,0,1,.268-2.28l1.7-9.43h-5.88v0.02Zm47.779,18.24h5.88l0.828-4.7h2.772c5.12,0,7.96-2.8,7.96-7.9,0-3.58-2.46-5.64-6.775-5.64h-7.512Zm9.167-9.19h-1.7l0.782-4.29H342.8a1.73,1.73,0,0,1,1.99,1.85A2.358,2.358,0,0,1,342.125,3300.43Zm19.7-9.43c-6.395,0-10.218,4.17-10.218,11.19,0,4.88,3.041,7.81,8.138,7.81,6.395,0,10.218-4.17,10.218-11.19C369.983,3293.91,366.943,3291,361.823,3291Zm-1.722,14.28c-1.52,0-2.415-1.1-2.415-2.95a10.152,10.152,0,0,1,.2-2.01c0.447-2.39,1.207-4.58,3.6-4.58,1.521,0,2.415,1.1,2.415,2.95a10.226,10.226,0,0,1-.2,2.01C363.253,3303.07,362.493,3305.28,360.1,3305.28Zm30.317,4.34H396.3l2.325-13.34h4.427l0.849-4.87H388.853L388,3296.28H392.7Zm-9.748-11.49c-1.855-.59-2.616-0.83-2.616-1.71a1.306,1.306,0,0,1,1.5-1.29,1.873,1.873,0,0,1,1.789,1.17l5.187-1.42c-0.6-2.57-2.8-3.88-6.573-3.88-7.11,0-7.669,4.81-7.669,6.27,0,2.98,1.565,4.81,4.964,5.76,0.894,0.25,1.922.52,1.922,1.51a1.344,1.344,0,0,1-1.587,1.29,2.386,2.386,0,0,1-2.236-1.49l-5.12,1.4c0.559,2.7,3.086,4.24,7.043,4.24,3.018,0,8.071-.81,8.071-6.32C385.366,3300.91,383.823,3299.1,380.67,3298.13Zm-122.119,11.49,3.175-18.21H252v18.21h6.551Zm147.876-18.21-3.153,18.21H413v-18.21h-6.573Zm-101.193-.03-3.152,18.24h5.88l0.939-5.37h4.941l0.805-4.59h-4.941l0.559-3.38h6.909l0.849-4.9H305.234Zm15.427,0-3.152,18.24h5.88l0.917-5.37h4.963l0.805-4.59h-4.941l0.559-3.38H332.6l0.849-4.9H320.661Z" transform="translate(-252 -3291)"/>
</svg>
